<?xml version="1.0" encoding="UTF-8"?>
<!-- Generator: visioncortex VTracer 0.6.4 -->
<svg version="1.1" xmlns="http://www.w3.org/2000/svg" width="64" height="64">
<path d="M0 0 C0.99 0.33 1.98 0.66 3 1 C3.94921875 3.94140625 3.94921875 3.94140625 4.6875 7.5625 C5.06455078 9.35880859 5.06455078 9.35880859 5.44921875 11.19140625 C5.63097656 12.11824219 5.81273437 13.04507812 6 14 C8.97 11.03 11.94 8.06 15 5 C15.66 5.33 16.32 5.66 17 6 C17.4140625 8.28515625 17.4140625 8.28515625 17.625 11.0625 C17.69976562 11.98160156 17.77453125 12.90070312 17.8515625 13.84765625 C17.90054688 14.55792969 17.94953125 15.26820312 18 16 C18.763125 15.484375 19.52625 14.96875 20.3125 14.4375 C21.199375 13.963125 22.08625 13.48875 23 13 C23.99 13.33 24.98 13.66 26 14 C25.34 17.3 24.68 20.6 24 24 C25.65 24 27.3 24 29 24 C29 32.91 29 41.82 29 51 C24.545 51.495 24.545 51.495 20 52 C19.505 52.99 19.505 52.99 19 54 C22.3 54 25.6 54 29 54 C29 54.66 29 55.32 29 56 C7.88 56 -13.24 56 -35 56 C-35 55.34 -35 54.68 -35 54 C-29.555 53.505 -29.555 53.505 -24 53 C-27.63 52.67 -31.26 52.34 -35 52 C-35 37.81 -35 23.62 -35 9 C-31.7 9 -28.4 9 -25 9 C-25 11.31 -25 13.62 -25 16 C-22.36 16 -19.72 16 -17 16 C-17.33 15.34 -17.66 14.68 -18 14 C-18.039992 12.00039988 -18.04346799 9.99952758 -18 8 C-14.61108678 8.68886787 -11.81988387 9.98716486 -8.75 11.5625 C-7.85796875 12.01753906 -6.9659375 12.47257812 -6.046875 12.94140625 C-5.37140625 13.29074219 -4.6959375 13.64007813 -4 14 C-3.87882812 13.40832031 -3.75765625 12.81664062 -3.6328125 12.20703125 C-2.73255357 7.96196415 -1.79543379 3.97560339 0 0 Z M-2 50 C-2.33 50.33 -2.66 50.66 -3 51 C-5.0587768 51.27953219 -7.11728432 51.44734351 -9.1875 51.62109375 C-9.785625 51.74613281 -10.38375 51.87117188 -11 52 C-11.33 52.66 -11.66 53.32 -12 54 C-5.73 54 0.54 54 7 54 C7 53.67 7 53.34 7 53 C5.88625 52.87625 4.7725 52.7525 3.625 52.625 C0 52 0 52 -2 50 Z " fill="#407094" transform="translate(35,8)"/>
<path d="M0 0 C0.66 0 1.32 0 2 0 C2.33820166 1.5823006 2.67035939 3.16589375 3 4.75 C3.185625 5.63171875 3.37125 6.5134375 3.5625 7.421875 C4 10 4 10 4 14 C4.70125 13.278125 5.4025 12.55625 6.125 11.8125 C8.92770745 9.00176187 11.92262792 6.50483774 15 4 C15 7.63 15 11.26 15 15 C17.64 13.68 20.28 12.36 23 11 C22.34 13.97 21.68 16.94 21 20 C19.68 20.33 18.36 20.66 17 21 C15.85706445 23.31315325 15.85706445 23.31315325 15.25 26.0625 C15.00765625 26.98160156 14.7653125 27.90070312 14.515625 28.84765625 C14.34546875 29.55792969 14.1753125 30.26820312 14 31 C13.05125 30.34 12.1025 29.68 11.125 29 C8.33761045 26.82031543 8.33761045 26.82031543 6 27 C7.32 28.32 8.64 29.64 10 31 C9.34 31 8.68 31 8 31 C8 31.66 8 32.32 8 33 C6.35 32.34 4.7 31.68 3 31 C2.87882812 31.84304687 2.75765625 32.68609375 2.6328125 33.5546875 C2.46523438 34.65039062 2.29765625 35.74609375 2.125 36.875 C1.96257813 37.96554688 1.80015625 39.05609375 1.6328125 40.1796875 C1 43 1 43 -1 45 C-3.3828125 45.1953125 -3.3828125 45.1953125 -6.125 45.125 C-7.03507812 45.10695312 -7.94515625 45.08890625 -8.8828125 45.0703125 C-9.58148438 45.04710937 -10.28015625 45.02390625 -11 45 C-11 44.01 -11 43.02 -11 42 C-8.69 42 -6.38 42 -4 42 C-4.33773438 41.443125 -4.67546875 40.88625 -5.0234375 40.3125 C-6.19289114 37.54323379 -6.03059739 35.9563543 -5.625 33 C-4.80716485 26.76162957 -5.06614209 23.33063632 -8.3125 17.8125 C-8.92738281 16.74644531 -9.54226562 15.68039063 -10.17578125 14.58203125 C-11.80425121 11.73616866 -11.80425121 11.73616866 -15 11 C-15.33 9.35 -15.66 7.7 -16 6 C-11.50202887 7.68673918 -7.27113698 9.81673892 -3 12 C-2.86722656 11.38511719 -2.73445313 10.77023438 -2.59765625 10.13671875 C-2.33275391 8.92435547 -2.33275391 8.92435547 -2.0625 7.6875 C-1.88847656 6.88699219 -1.71445312 6.08648437 -1.53515625 5.26171875 C-1 3 -1 3 0 0 Z " fill="#F5E58B" transform="translate(35,13)"/>
<path d="M0 0 C5.445 0.495 5.445 0.495 11 1 C12.64285714 19.07142857 12.64285714 19.07142857 11 24 C6.05 24.495 6.05 24.495 1 25 C0.505 22.525 0.505 22.525 0 20 C-3.3 20 -6.6 20 -10 20 C-10 21.98 -10 23.96 -10 26 C-12.64 26 -15.28 26 -18 26 C-17.52396226 23.87429688 -17.04407402 21.74945573 -16.5625 19.625 C-16.29566406 18.44164063 -16.02882812 17.25828125 -15.75390625 16.0390625 C-15 13 -15 13 -14 11 C-11.525 11.99 -11.525 11.99 -9 13 C-9 11.68 -9 10.36 -9 9 C-9.99 8.34 -10.98 7.68 -12 7 C-8 7 -8 7 -4 10 C-2.68 6.7 -1.36 3.4 0 0 Z " fill="#2C446B" transform="translate(52,33)"/>
<path d="M0 0 C13 0 13 0 15.8359375 2.44921875 C16.34382813 3.51785156 16.85171875 4.58648437 17.375 5.6875 C17.91898438 6.74324219 18.46296875 7.79898438 19.0234375 8.88671875 C20.06423357 12.20477663 19.88611403 13.71447329 19 17 C19.33 17.66 19.66 18.32 20 19 C19.34 19.99 18.68 20.98 18 22 C18.34605611 24.28397032 18.96704519 25.93409037 20 28 C15.3537047 28.31679286 13.60845929 27.7936459 10 25 C7.45741537 24.49985047 7.45741537 24.49985047 5 25 C3.31201173 26.43750191 3.31201173 26.43750191 2 28 C1.34 28 0.68 28 0 28 C0 18.76 0 9.52 0 0 Z " fill="#30A0F3" transform="translate(10,26)"/>
<path d="M0 0 C0.66 0.66 1.32 1.32 2 2 C1.77289324 4.01151705 1.53928901 6.02344239 1.2265625 8.0234375 C0.97286301 10.23674688 1.2178162 11.91417653 2 14 C-0.31 14 -2.62 14 -5 14 C-5 14.99 -5 15.98 -5 17 C-2.03 17 0.94 17 4 17 C3.67 17.66 3.34 18.32 3 19 C0.35139573 19.59355614 -2.29197322 19.74209269 -5 20 C-1.37 20 2.26 20 6 20 C6 19.01 6 18.02 6 17 C8.31 17.33 10.62 17.66 13 18 C13 17.01 13 16.02 13 15 C11.68 14.67 10.36 14.34 9 14 C10.32 14 11.64 14 13 14 C13 13.34 13 12.68 13 12 C20.45038168 10.65648855 20.45038168 10.65648855 23 12.25 C24 14 24 14 24 17 C29.445 16.01 29.445 16.01 35 15 C35 15.99 35 16.98 35 18 C34.04287109 18.07347656 34.04287109 18.07347656 33.06640625 18.1484375 C32.24011719 18.22320312 31.41382813 18.29796875 30.5625 18.375 C29.73878906 18.44460937 28.91507813 18.51421875 28.06640625 18.5859375 C27.38449219 18.72257812 26.70257813 18.85921875 26 19 C25.67 19.66 25.34 20.32 25 21 C28.3 21 31.6 21 35 21 C35 21.66 35 22.32 35 23 C13.88 23 -7.24 23 -29 23 C-29 22.34 -29 21.68 -29 21 C-25.37 20.67 -21.74 20.34 -18 20 C-21.63 19.67 -25.26 19.34 -29 19 C-28.67 18.34 -28.34 17.68 -28 17 C-24.04 17.33 -20.08 17.66 -16 18 C-16 16.35 -16 14.7 -16 13 C-15.34 12.34 -14.68 11.68 -14 11 C-7.42307692 11.57692308 -7.42307692 11.57692308 -6 13 C-3.99279077 12.71325582 -1.9914056 12.38133299 0 12 C-0.66 11.34 -1.32 10.68 -2 10 C-1.60467975 7.54901444 -0.78698574 5.36095721 0 3 C0 2.01 0 1.02 0 0 Z " fill="#082B5B" transform="translate(29,41)"/>
<path d="M0 0 C0.99 0.33 1.98 0.66 3 1 C3.94921875 3.94140625 3.94921875 3.94140625 4.6875 7.5625 C5.06455078 9.35880859 5.06455078 9.35880859 5.44921875 11.19140625 C5.63097656 12.11824219 5.81273437 13.04507812 6 14 C8.97 11.03 11.94 8.06 15 5 C15.66 5.33 16.32 5.66 17 6 C17.4140625 8.28515625 17.4140625 8.28515625 17.625 11.0625 C17.69976562 11.98160156 17.77453125 12.90070312 17.8515625 13.84765625 C17.90054688 14.55792969 17.94953125 15.26820312 18 16 C18.763125 15.484375 19.52625 14.96875 20.3125 14.4375 C21.199375 13.963125 22.08625 13.48875 23 13 C23.99 13.33 24.98 13.66 26 14 C25.34 17.3 24.68 20.6 24 24 C25.65 24 27.3 24 29 24 C29 24.66 29 25.32 29 26 C25.7 26 22.4 26 19 26 C19.66 25.67 20.32 25.34 21 25 C21.46523063 23.10466658 21.46523063 23.10466658 21.625 20.9375 C21.810625 18.9884375 21.810625 18.9884375 22 17 C21.21625 17.495 20.4325 17.99 19.625 18.5 C17 20 17 20 15 20 C14.67 16.7 14.34 13.4 14 10 C13.44570313 10.6496875 12.89140625 11.299375 12.3203125 11.96875 C11.59585938 12.8040625 10.87140625 13.639375 10.125 14.5 C9.40570313 15.3353125 8.68640625 16.170625 7.9453125 17.03125 C7.30335937 17.6809375 6.66140625 18.330625 6 19 C5.34 19 4.68 19 4 19 C3.66179834 17.4176994 3.32964061 15.83410625 3 14.25 C2.814375 13.36828125 2.62875 12.4865625 2.4375 11.578125 C2 9 2 9 2 5 C1.34 5 0.68 5 0 5 C-0.13277344 5.61488281 -0.26554687 6.22976562 -0.40234375 6.86328125 C-0.57894531 7.67152344 -0.75554688 8.47976562 -0.9375 9.3125 C-1.11152344 10.11300781 -1.28554688 10.91351563 -1.46484375 11.73828125 C-2 14 -2 14 -3 17 C-8.15464734 16.51675181 -11.81550319 13.81389239 -16 11 C-15.67 12.65 -15.34 14.3 -15 16 C-14.42894531 16.03351562 -13.85789062 16.06703125 -13.26953125 16.1015625 C-9.81048906 17.47089073 -8.50002479 20.30000365 -6.6875 23.375 C-6.31560547 23.96539063 -5.94371094 24.55578125 -5.56054688 25.1640625 C-4.51171875 26.8984375 -4.51171875 26.8984375 -3 30 C-3.33 30.99 -3.66 31.98 -4 33 C-6.15178156 30.23612808 -7.98370421 27.43466931 -9.6875 24.375 C-10.12449219 23.59898438 -10.56148437 22.82296875 -11.01171875 22.0234375 C-12 20 -12 20 -12 18 C-16.62 18 -21.24 18 -26 18 C-26 27.24 -26 36.48 -26 46 C-26.33 46 -26.66 46 -27 46 C-27 34.45 -27 22.9 -27 11 C-29.64 11 -32.28 11 -35 11 C-35 10.34 -35 9.68 -35 9 C-31.7 9 -28.4 9 -25 9 C-25 11.31 -25 13.62 -25 16 C-22.36 16 -19.72 16 -17 16 C-17.33 15.34 -17.66 14.68 -18 14 C-18.039992 12.00039988 -18.04346799 9.99952758 -18 8 C-14.61108678 8.68886787 -11.81988387 9.98716486 -8.75 11.5625 C-7.85796875 12.01753906 -6.9659375 12.47257812 -6.046875 12.94140625 C-5.37140625 13.29074219 -4.6959375 13.64007813 -4 14 C-3.87882812 13.40832031 -3.75765625 12.81664062 -3.6328125 12.20703125 C-2.73255357 7.96196415 -1.79543379 3.97560339 0 0 Z " fill="#082753" transform="translate(35,8)"/>
<path d="M0 0 C0.66 0 1.32 0 2 0 C2.33820166 1.5823006 2.67035939 3.16589375 3 4.75 C3.185625 5.63171875 3.37125 6.5134375 3.5625 7.421875 C4 10 4 10 4 14 C4.70125 13.278125 5.4025 12.55625 6.125 11.8125 C8.92770745 9.00176187 11.92262792 6.50483774 15 4 C15 7.63 15 11.26 15 15 C17.64 13.68 20.28 12.36 23 11 C22.34 13.97 21.68 16.94 21 20 C20.505 18.02 20.505 18.02 20 16 C19.21625 16.495 18.4325 16.99 17.625 17.5 C15 19 15 19 13 19 C12.67 16.36 12.34 13.72 12 11 C10.35 12.98 8.7 14.96 7 17 C7.66 17.99 8.32 18.98 9 20 C8.01 20.99 7.02 21.98 6 23 C3.23888091 20.66134722 2.5078974 18.90771821 1.875 15.375 C1.50902407 12.40059351 1.50902407 12.40059351 0 10 C-0.66 11.65 -1.32 13.3 -2 15 C-5.37462715 14.45276317 -7.08235 13.9451 -10 12 C-11.65549531 11.61500109 -13.3222433 11.27206865 -15 11 C-15.33 9.35 -15.66 7.7 -16 6 C-11.50202887 7.68673918 -7.27113698 9.81673892 -3 12 C-2.86722656 11.38511719 -2.73445313 10.77023438 -2.59765625 10.13671875 C-2.33275391 8.92435547 -2.33275391 8.92435547 -2.0625 7.6875 C-1.88847656 6.88699219 -1.71445312 6.08648437 -1.53515625 5.26171875 C-1 3 -1 3 0 0 Z " fill="#EEC910" transform="translate(35,13)"/>
<path d="M0 0 C3.63 0 7.26 0 11 0 C12.00508801 1.78881736 13.00392736 3.58114696 14 5.375 C14.8353125 6.87160156 14.8353125 6.87160156 15.6875 8.3984375 C17 11 17 11 17 13 C11.39 13 5.78 13 0 13 C0 8.71 0 4.42 0 0 Z " fill="#1E4978" transform="translate(11,27)"/>
<path d="M0 0 C1.87899931 0.20132135 3.7579007 0.41529698 5.625 0.70703125 C9.73881896 1.21449247 13.86210026 1.07631372 18 1 C18 2.98 18 4.96 18 7 C14.47005387 8.17664871 11.70544587 8.19850603 8 8 C7.01 7.34 6.02 6.68 5 6 C1.89143 5.76685725 -0.01413769 6.00471256 -3 7 C-5.6875 6.5625 -5.6875 6.5625 -8 6 C-7.34 4.35 -6.68 2.7 -6 1 C-5.38125 1.20625 -4.7625 1.4125 -4.125 1.625 C-3.073125 1.810625 -3.073125 1.810625 -2 2 C-1.34 1.34 -0.68 0.68 0 0 Z " fill="#EA5256" transform="translate(45,45)"/>
<path d="M0 0 C3.3 0 6.6 0 10 0 C10 2.31 10 4.62 10 7 C12.64 7 15.28 7 18 7 C18 6.34 18 5.68 18 5 C18.66 5 19.32 5 20 5 C20 5.66 20 6.32 20 7 C20.57105469 7.03351562 21.14210938 7.06703125 21.73046875 7.1015625 C25.18951094 8.47089073 26.49997521 11.30000365 28.3125 14.375 C28.68439453 14.96539062 29.05628906 15.55578125 29.43945312 16.1640625 C30.48828125 17.8984375 30.48828125 17.8984375 32 21 C31.67 21.99 31.34 22.98 31 24 C28.84821844 21.23612808 27.01629579 18.43466931 25.3125 15.375 C24.87550781 14.59898438 24.43851563 13.82296875 23.98828125 13.0234375 C23 11 23 11 23 9 C18.38 9 13.76 9 9 9 C9 18.24 9 27.48 9 37 C8.67 37 8.34 37 8 37 C8 25.45 8 13.9 8 2 C5.36 2 2.72 2 0 2 C0 1.34 0 0.68 0 0 Z " fill="#052A5B" transform="translate(0,17)"/>
<path d="M0 0 C6.72 0.72 6.72 0.72 8 2 C9.85287502 2.07226502 11.70833878 2.0838122 13.5625 2.0625 C14.57441406 2.05347656 15.58632813 2.04445312 16.62890625 2.03515625 C17.41136719 2.02355469 18.19382812 2.01195312 19 2 C18.67 3.65 18.34 5.3 18 7 C14.7 7.33 11.4 7.66 8 8 C7.67 6.35 7.34 4.7 7 3 C3.7 3 0.4 3 -3 3 C-3 4.98 -3 6.96 -3 9 C-5.64 9 -8.28 9 -11 9 C-9.125 2.125 -9.125 2.125 -8 1 C-5.66666667 1 -3.33333333 1 -1 1 C-0.67 0.67 -0.34 0.34 0 0 Z " fill="#2A3153" transform="translate(45,50)"/>
<path d="M0 0 C0.33 0 0.66 0 1 0 C1 9.24 1 18.48 1 28 C2.65 26.68 4.3 25.36 6 24 C9.6875 24.0625 9.6875 24.0625 13 25 C13.66 25.99 14.32 26.98 15 28 C14.34 28.33 13.68 28.66 13 29 C13 28.34 13 27.68 13 27 C10.69 27 8.38 27 6 27 C5.34 28.98 4.68 30.96 4 33 C0.04 33 -3.92 33 -8 33 C-8.33 31.35 -8.66 29.7 -9 28 C-6.03 28 -3.06 28 0 28 C0 18.76 0 9.52 0 0 Z " fill="#0E3D74" transform="translate(9,26)"/>
<path d="M0 0 C0 3.3 0 6.6 0 10 C-5.94 10.495 -5.94 10.495 -12 11 C-11.67 8.36 -11.34 5.72 -11 3 C-10.67 3.66 -10.34 4.32 -10 5 C-7.97536745 5.65213292 -7.97536745 5.65213292 -6 6 C-6 6.66 -6 7.32 -6 8 C-5.34 8 -4.68 8 -4 8 C-4 7.01 -4 6.02 -4 5 C-6.475 4.01 -6.475 4.01 -9 3 C-9 2.34 -9 1.68 -9 1 C-6.04335481 -0.4783226 -3.25770263 -0.06032783 0 0 Z " fill="#A6E3F6" transform="translate(63,34)"/>
<path d="M0 0 C3.625 0.375 3.625 0.375 7 1 C8.33157895 6.44736842 8.33157895 6.44736842 6.875 8.875 C4.40522151 10.3568671 2.83386167 10.3633156 0 10 C-2 8 -2 8 -2.25 5 C-2 2 -2 2 0 0 Z " fill="#1E436E" transform="translate(15,52)"/>
<path d="M0 0 C0.66 0 1.32 0 2 0 C2.33 3.3 2.66 6.6 3 10 C2.01 10 1.02 10 0 10 C-0.66 11.65 -1.32 13.3 -2 15 C-5.37462715 14.45276317 -7.08235 13.9451 -10 12 C-11.65549531 11.61500109 -13.3222433 11.27206865 -15 11 C-15.33 9.35 -15.66 7.7 -16 6 C-11.50202887 7.68673918 -7.27113698 9.81673892 -3 12 C-2.86722656 11.38511719 -2.73445313 10.77023438 -2.59765625 10.13671875 C-2.33275391 8.92435547 -2.33275391 8.92435547 -2.0625 7.6875 C-1.88847656 6.88699219 -1.71445312 6.08648437 -1.53515625 5.26171875 C-1 3 -1 3 0 0 Z " fill="#E7C40F" transform="translate(35,13)"/>
<path d="M0 0 C3.625 0.375 3.625 0.375 7 1 C8.32278481 6.41139241 8.32278481 6.41139241 6.9375 8.9375 C4.08906752 10.49954362 2.06495097 9.74921024 -1 9 C-1.625 5.625 -1.625 5.625 -2 2 C-1.34 1.34 -0.68 0.68 0 0 Z " fill="#1F436E" transform="translate(45,52)"/>
<path d="M0 0 C1.65 0 3.3 0 5 0 C5 1.98 5 3.96 5 6 C5.66 6 6.32 6 7 6 C6.67 4.35 6.34 2.7 6 1 C6.99 1 7.98 1 9 1 C12 6.75 12 6.75 12 9 C8.04 9 4.08 9 0 9 C0 6.03 0 3.06 0 0 Z " fill="#A7E5F7" transform="translate(13,29)"/>
<path d="M0 0 C3.82097239 0.53069061 6.06171403 1.49701566 9 4 C7.64758974 8.05723077 5.39073758 9.49085419 2 12 C1.01 12 0.02 12 -1 12 C-1.02712066 10.56260487 -1.04645067 9.12506137 -1.0625 7.6875 C-1.07410156 6.88699219 -1.08570313 6.08648437 -1.09765625 5.26171875 C-1 3 -1 3 0 0 Z " fill="#062455" transform="translate(46,0)"/>
<path d="M0 0 C0 4.29 0 8.58 0 13 C-4.57269026 10.71365487 -5.9952155 9.00637934 -9 5 C-9 4.34 -9 3.68 -9 3 C-2.25 0 -2.25 0 0 0 Z " fill="#042453" transform="translate(27,3)"/>
<path d="M0 0 C0.66 0.33 1.32 0.66 2 1 C3.87379605 1.07033769 5.75001102 1.0843022 7.625 1.0625 C8.62789062 1.05347656 9.63078125 1.04445312 10.6640625 1.03515625 C11.43492188 1.02355469 12.20578125 1.01195312 13 1 C12.67 2.65 12.34 4.3 12 6 C8.7 6.33 5.4 6.66 2 7 C1.87625 6.195625 1.7525 5.39125 1.625 4.5625 C1.315625 3.2940625 1.315625 3.2940625 1 2 C0.34 1.67 -0.32 1.34 -1 1 C-0.67 0.67 -0.34 0.34 0 0 Z " fill="#1F3864" transform="translate(51,51)"/>
<path d="M0 0 C0.33 0 0.66 0 1 0 C1 2.97 1 5.94 1 9 C3.64 7.68 6.28 6.36 9 5 C8.34 7.97 7.68 10.94 7 14 C6.67 12.68 6.34 11.36 6 10 C5.21625 10.495 4.4325 10.99 3.625 11.5 C1 13 1 13 -1 13 C-1.22151549 11.20991533 -1.42682213 9.41781838 -1.625 7.625 C-1.74101563 6.62726562 -1.85703125 5.62953125 -1.9765625 4.6015625 C-1.98429687 3.74304688 -1.99203125 2.88453125 -2 2 C-1.34 1.34 -0.68 0.68 0 0 Z " fill="#FDD203" transform="translate(49,19)"/>
<path d="M0 0 C0.66 0 1.32 0 2 0 C2 0.66 2 1.32 2 2 C2.57105469 2.03351562 3.14210938 2.06703125 3.73046875 2.1015625 C7.18951094 3.47089073 8.49997521 6.30000365 10.3125 9.375 C10.68439453 9.96539062 11.05628906 10.55578125 11.43945312 11.1640625 C12.48828125 12.8984375 12.48828125 12.8984375 14 16 C13.67 16.99 13.34 17.98 13 19 C10.84821844 16.23612808 9.01629579 13.43466931 7.3125 10.375 C6.87550781 9.59898438 6.43851563 8.82296875 5.98828125 8.0234375 C5 6 5 6 5 4 C0.71 4 -3.58 4 -8 4 C-8 3.67 -8 3.34 -8 3 C-5.36 3 -2.72 3 0 3 C0 2.01 0 1.02 0 0 Z " fill="#1A436D" transform="translate(18,22)"/>
<path d="M0 0 C4.03520597 1.58962659 8.01811282 3.28232318 12 5 C11.67 6.32 11.34 7.64 11 9 C9.02 9 7.04 9 5 9 C3.35 6.03 1.7 3.06 0 0 Z " fill="#E7DA86" transform="translate(23,24)"/>
<path d="M0 0 C2.12563103 0.11376617 4.2505261 0.24135631 6.375 0.375 C8.15003906 0.47941406 8.15003906 0.47941406 9.9609375 0.5859375 C13 1 13 1 15 3 C17.57061311 3.64767793 17.57061311 3.64767793 20 4 C20 4.33 20 4.66 20 5 C13.73 5 7.46 5 1 5 C1 4.67 1 4.34 1 4 C4.3 3.67 7.6 3.34 11 3 C7.37 2.67 3.74 2.34 0 2 C0 1.34 0 0.68 0 0 Z " fill="#002253" transform="translate(0,58)"/>
<path d="M0 0 C2.49361571 1.20381448 4.68143083 2.45428722 7 4 C7 4.66 7 5.32 7 6 C4.1875 7.5625 4.1875 7.5625 1 9 C0.01 8.67 -0.98 8.34 -2 8 C-2.66 9.65 -3.32 11.3 -4 13 C-4.93065133 10.39417629 -5.14917407 9.35801776 -4.0625 6.75 C-3.5365625 5.88375 -3.5365625 5.88375 -3 5 C-0.525 5.99 -0.525 5.99 2 7 C2 5.68 2 4.36 2 3 C1.01 2.34 0.02 1.68 -1 1 C-0.67 0.67 -0.34 0.34 0 0 Z " fill="#23395C" transform="translate(41,39)"/>
<path d="M0 0 C2 3 2 3 2 6 C-0.97 6 -3.94 6 -7 6 C-7 5.01 -7 4.02 -7 3 C-4.69 3 -2.38 3 0 3 C0 2.01 0 1.02 0 0 Z " fill="#77A5B3" transform="translate(31,52)"/>
<path d="M0 0 C3.3 0 6.6 0 10 0 C10 0.99 10 1.98 10 3 C6.7 3 3.4 3 0 3 C0 2.01 0 1.02 0 0 Z " fill="#97D2E8" transform="translate(1,55)"/>
<path d="M0 0 C0.66 0.33 1.32 0.66 2 1 C2 2.32 2 3.64 2 5 C3.65 5 5.3 5 7 5 C7 5.66 7 6.32 7 7 C3.7 7 0.4 7 -3 7 C-2.34 6.67 -1.68 6.34 -1 6 C-0.34227572 2.97065509 -0.34227572 2.97065509 0 0 Z " fill="#223C4D" transform="translate(57,27)"/>
<path d="M0 0 C0.66 0 1.32 0 2 0 C2.33 3.3 2.66 6.6 3 10 C2.34 9.67 1.68 9.34 1 9 C1 8.34 1 7.68 1 7 C0.01 7.33 -0.98 7.66 -2 8 C-1.34 5.36 -0.68 2.72 0 0 Z " fill="#D5B60E" transform="translate(35,13)"/>
<path d="M0 0 C1.25541557 3.76624671 0.37061958 5.37188934 -1 9 C-1.33 7.68 -1.66 6.36 -2 5 C-3.65 5 -5.3 5 -7 5 C-4.702779 3.25728062 -2.40133271 1.60088848 0 0 Z " fill="#E9C611" transform="translate(57,24)"/>
<path d="M0 0 C2.97 0.495 2.97 0.495 6 1 C6 1.99 6 2.98 6 4 C3.36 4 0.72 4 -2 4 C-1.34 2.68 -0.68 1.36 0 0 Z " fill="#6596B2" transform="translate(36,55)"/>
<path d="M0 0 C2.64 0 5.28 0 8 0 C8 0.99 8 1.98 8 3 C5.36 3 2.72 3 0 3 C0 2.01 0 1.02 0 0 Z " fill="#9BD7EC" transform="translate(55,54)"/>
<path d="M0 0 C2.475 0.495 2.475 0.495 5 1 C4.67 2.32 4.34 3.64 4 5 C2.68 4.67 1.36 4.34 0 4 C0 2.68 0 1.36 0 0 Z " fill="#224B75" transform="translate(30,28)"/>
<path d="M0 0 C0 1.98 0 3.96 0 6 C-1.9375 5.1875 -1.9375 5.1875 -4 4 C-4.33 3.01 -4.66 2.02 -5 1 C-3 0 -3 0 0 0 Z " fill="#BDA516" transform="translate(26,6)"/>
<path d="M0 0 C1.32 0.66 2.64 1.32 4 2 C3.34 3.32 2.68 4.64 2 6 C1.01 5.34 0.02 4.68 -1 4 C-0.67 2.68 -0.34 1.36 0 0 Z " fill="#2F375A" transform="translate(40,30)"/>
<path d="M0 0 C2.475 0.495 2.475 0.495 5 1 C5 1.66 5 2.32 5 3 C2.5 4.625 2.5 4.625 0 6 C0 4.02 0 2.04 0 0 Z " fill="#D4B50E" transform="translate(47,3)"/>
<path d="M0 0 C1.98 0.495 1.98 0.495 4 1 C4 1.99 4 2.98 4 4 C2.35 4 0.7 4 -1 4 C-0.67 2.68 -0.34 1.36 0 0 Z " fill="#786838" transform="translate(37,51)"/>
</svg>
