<?xml version="1.0" encoding="UTF-8"?>
<!-- Generator: visioncortex VTracer 0.6.4 -->
<svg version="1.1" xmlns="http://www.w3.org/2000/svg" width="64" height="64">
<path d="M0 0 C1.28519531 -0.00386719 2.57039063 -0.00773438 3.89453125 -0.01171875 C4.56307129 -0.00543457 5.23161133 0.00084961 5.92041016 0.00732422 C7.9619433 0.02338396 10.00149708 0.00747079 12.04296875 -0.01171875 C13.32816406 -0.00785156 14.61335938 -0.00398437 15.9375 0 C17.11763672 0.00338379 18.29777344 0.00676758 19.51367188 0.01025391 C22.46875 0.3984375 22.46875 0.3984375 24.35864258 1.65893555 C25.73712811 3.8189772 25.81599491 5.0779269 25.76171875 7.62890625 C25.7472168 8.83256836 25.7472168 8.83256836 25.73242188 10.06054688 C25.70728516 10.89392578 25.68214844 11.72730469 25.65625 12.5859375 C25.63594727 13.8534082 25.63594727 13.8534082 25.61523438 15.14648438 C25.57990799 17.23074134 25.52610139 19.31467027 25.46875 21.3984375 C26.6134375 21.7078125 26.6134375 21.7078125 27.78125 22.0234375 C31.53699926 23.94498363 32.11545531 25.39494071 33.46875 29.3984375 C33.98926346 34.33866792 33.95323199 39.28917365 33.99609375 44.25195312 C34.01800781 45.25291016 34.03992187 46.25386719 34.0625 47.28515625 C34.06958984 48.19483154 34.07667969 49.10450684 34.08398438 50.04174805 C34.2999936 52.43804158 34.2999936 52.43804158 35.74414062 54.21801758 C37.67057566 55.77498557 37.67057566 55.77498557 41.46875 55.3984375 C41.72173269 48.23059453 41.40615591 41.15582115 40.71875 34.0234375 C40.6261792 32.88285889 40.6261792 32.88285889 40.53173828 31.71923828 C39.98706217 26.57255858 38.49650838 23.69189815 35.46875 19.3984375 C35.71875 15.5234375 35.71875 15.5234375 36.46875 12.3984375 C32.01375 10.4184375 32.01375 10.4184375 27.46875 8.3984375 C27.46875 7.4084375 27.46875 6.4184375 27.46875 5.3984375 C34.75304729 5.99307401 39.88593173 8.44671483 44.90625 13.7734375 C46.95686693 16.32167081 47.45419625 17.30383812 47.96875 20.6484375 C47.46875 23.3984375 47.46875 23.3984375 45.46875 26.3984375 C45.18686717 28.63369942 45.18686717 28.63369942 45.28125 31.1484375 C45.29542969 32.11523438 45.30960938 33.08203125 45.32421875 34.078125 C45.54151216 39.07000065 45.9780394 44.04176242 46.4453125 49.015625 C46.46909217 52.44782453 46.0549237 54.38794455 44.46875 57.3984375 C42.46875 59.3984375 42.46875 59.3984375 38.59375 59.7734375 C35.45352357 59.69934867 34.65038472 59.53349921 32.03125 57.5859375 C28.49516963 52.63542498 29.43902884 47.05782585 29.59570312 41.265625 C29.6668667 36.22556969 29.15831527 32.16163996 27.46875 27.3984375 C27.13875 27.0684375 26.80875 26.7384375 26.46875 26.3984375 C26.13875 36.2984375 25.80875 46.1984375 25.46875 56.3984375 C26.12875 56.3984375 26.78875 56.3984375 27.46875 56.3984375 C28.46875 58.3984375 28.46875 58.3984375 28.46875 64.3984375 C14.93875 64.3984375 1.40875 64.3984375 -12.53125 64.3984375 C-12.53125 58.3984375 -12.53125 58.3984375 -10.53125 56.3984375 C-10.22081947 54.07496583 -10.22081947 54.07496583 -10.26000977 51.35375977 C-10.24982315 50.30249405 -10.23963654 49.25122833 -10.22914124 48.16810608 C-10.22700119 47.02852951 -10.22486115 45.88895294 -10.22265625 44.71484375 C-10.19749972 42.31965899 -10.17210165 39.92447675 -10.14648438 37.52929688 C-10.1176987 33.73918286 -10.09369153 29.94911269 -10.07495117 26.15893555 C-10.05336382 22.51067323 -10.01393026 18.86292851 -9.97265625 15.21484375 C-9.97254044 14.07729141 -9.97242462 12.93973907 -9.9723053 11.76771545 C-9.95896652 10.71329758 -9.94562775 9.6588797 -9.93188477 8.57250977 C-9.92681412 7.6436647 -9.92174347 6.71481964 -9.91651917 5.75782776 C-8.97552836 -0.00480454 -5.12407194 0.01469218 0 0 Z M39.46875 15.3984375 C40.12460189 19.00836129 40.12460189 19.00836129 41.46875 22.3984375 C42.12875 22.3984375 42.78875 22.3984375 43.46875 22.3984375 C42.81289811 18.78851371 42.81289811 18.78851371 41.46875 15.3984375 C40.80875 15.3984375 40.14875 15.3984375 39.46875 15.3984375 Z " fill="#466FAF" transform="translate(14.53125,-0.3984375)"/>
<path d="M0 0 C1.28519531 -0.00386719 2.57039063 -0.00773438 3.89453125 -0.01171875 C4.56307129 -0.00543457 5.23161133 0.00084961 5.92041016 0.00732422 C7.9619433 0.02338396 10.00149708 0.00747079 12.04296875 -0.01171875 C13.32816406 -0.00785156 14.61335938 -0.00398437 15.9375 0 C17.11763672 0.00338379 18.29777344 0.00676758 19.51367188 0.01025391 C22.46875 0.3984375 22.46875 0.3984375 24.35864258 1.65893555 C25.73712811 3.8189772 25.81599491 5.0779269 25.76171875 7.62890625 C25.7472168 8.83256836 25.7472168 8.83256836 25.73242188 10.06054688 C25.70728516 10.89392578 25.68214844 11.72730469 25.65625 12.5859375 C25.63594727 13.8534082 25.63594727 13.8534082 25.61523438 15.14648438 C25.57990799 17.23074134 25.52610139 19.31467027 25.46875 21.3984375 C26.6134375 21.7078125 26.6134375 21.7078125 27.78125 22.0234375 C31.53699926 23.94498363 32.11545531 25.39494071 33.46875 29.3984375 C33.98926346 34.33866792 33.95323199 39.28917365 33.99609375 44.25195312 C34.01800781 45.25291016 34.03992187 46.25386719 34.0625 47.28515625 C34.06958984 48.19483154 34.07667969 49.10450684 34.08398438 50.04174805 C34.2999936 52.43804158 34.2999936 52.43804158 35.74414062 54.21801758 C37.67057566 55.77498557 37.67057566 55.77498557 41.46875 55.3984375 C41.72173269 48.23059453 41.40615591 41.15582115 40.71875 34.0234375 C40.6261792 32.88285889 40.6261792 32.88285889 40.53173828 31.71923828 C39.98706217 26.57255858 38.49650838 23.69189815 35.46875 19.3984375 C35.71875 15.5234375 35.71875 15.5234375 36.46875 12.3984375 C32.01375 10.4184375 32.01375 10.4184375 27.46875 8.3984375 C27.46875 7.4084375 27.46875 6.4184375 27.46875 5.3984375 C34.75304729 5.99307401 39.88593173 8.44671483 44.90625 13.7734375 C46.95686693 16.32167081 47.45419625 17.30383812 47.96875 20.6484375 C47.46875 23.3984375 47.46875 23.3984375 45.46875 26.3984375 C45.18686717 28.63369942 45.18686717 28.63369942 45.28125 31.1484375 C45.29542969 32.11523438 45.30960938 33.08203125 45.32421875 34.078125 C45.54151216 39.07000065 45.9780394 44.04176242 46.4453125 49.015625 C46.46909217 52.44782453 46.0549237 54.38794455 44.46875 57.3984375 C42.46875 59.3984375 42.46875 59.3984375 38.59375 59.7734375 C35.45352357 59.69934867 34.65038472 59.53349921 32.03125 57.5859375 C28.49516963 52.63542498 29.43902884 47.05782585 29.59570312 41.265625 C29.6668667 36.22556969 29.15831527 32.16163996 27.46875 27.3984375 C27.13875 27.0684375 26.80875 26.7384375 26.46875 26.3984375 C26.13875 36.2984375 25.80875 46.1984375 25.46875 56.3984375 C26.12875 56.3984375 26.78875 56.3984375 27.46875 56.3984375 C28.46875 58.3984375 28.46875 58.3984375 28.46875 64.3984375 C14.93875 64.3984375 1.40875 64.3984375 -12.53125 64.3984375 C-12.53125 58.3984375 -12.53125 58.3984375 -10.53125 56.3984375 C-10.22081947 54.07496583 -10.22081947 54.07496583 -10.26000977 51.35375977 C-10.24982315 50.30249405 -10.23963654 49.25122833 -10.22914124 48.16810608 C-10.22700119 47.02852951 -10.22486115 45.88895294 -10.22265625 44.71484375 C-10.19749972 42.31965899 -10.17210165 39.92447675 -10.14648438 37.52929688 C-10.1176987 33.73918286 -10.09369153 29.94911269 -10.07495117 26.15893555 C-10.05336382 22.51067323 -10.01393026 18.86292851 -9.97265625 15.21484375 C-9.97254044 14.07729141 -9.97242462 12.93973907 -9.9723053 11.76771545 C-9.95896652 10.71329758 -9.94562775 9.6588797 -9.93188477 8.57250977 C-9.92681412 7.6436647 -9.92174347 6.71481964 -9.91651917 5.75782776 C-8.97552836 -0.00480454 -5.12407194 0.01469218 0 0 Z M-6.53125 5.3984375 C-6.82356539 7.66271124 -6.82356539 7.66271124 -6.75830078 10.30712891 C-6.75814972 11.32803619 -6.75799866 12.34894348 -6.75784302 13.40078735 C-6.74752045 14.50602753 -6.73719788 15.6112677 -6.7265625 16.75 C-6.7237326 17.8791684 -6.72090271 19.00833679 -6.71798706 20.17172241 C-6.70676462 23.78906721 -6.68165622 27.40616716 -6.65625 31.0234375 C-6.64622287 33.4713506 -6.63709656 35.91926757 -6.62890625 38.3671875 C-6.60851755 44.37777509 -6.56937224 50.38783124 -6.53125 56.3984375 C3.03875 56.3984375 12.60875 56.3984375 22.46875 56.3984375 C22.49166734 49.17183566 22.51159216 41.94535918 22.52368164 34.71875 C22.52871989 32.25878472 22.5355506 29.79882245 22.54418945 27.33886719 C22.55627723 23.80923725 22.56198329 20.27964681 22.56640625 16.75 C22.57156754 15.64475983 22.57672882 14.53951965 22.58204651 13.40078735 C22.58212204 12.37988007 22.58219757 11.35897278 22.58227539 10.30712891 C22.58560631 8.95477646 22.58560631 8.95477646 22.58900452 7.57510376 C22.6106785 5.35130002 22.6106785 5.35130002 21.46875 3.3984375 C17.17713953 3.34059908 12.88562855 3.3048963 8.59375 3.2734375 C7.37042969 3.25667969 6.14710937 3.23992187 4.88671875 3.22265625 C3.72011719 3.21621094 2.55351562 3.20976563 1.3515625 3.203125 C0.27277832 3.19265137 -0.80600586 3.18217773 -1.91748047 3.17138672 C-4.69169022 3.13003773 -4.69169022 3.13003773 -6.53125 5.3984375 Z M39.46875 15.3984375 C40.12460189 19.00836129 40.12460189 19.00836129 41.46875 22.3984375 C42.12875 22.3984375 42.78875 22.3984375 43.46875 22.3984375 C42.81289811 18.78851371 42.81289811 18.78851371 41.46875 15.3984375 C40.80875 15.3984375 40.14875 15.3984375 39.46875 15.3984375 Z " fill="#0A0D11" transform="translate(14.53125,-0.3984375)"/>
<path d="M0 0 C0.33 0 0.66 0 1 0 C1 10.56 1 21.12 1 32 C1.99 32 2.98 32 4 32 C5 34 5 34 5 40 C-8.2 40 -21.4 40 -35 40 C-35 35 -35 35 -33.95581055 33.20581055 C-30.99907112 31.38290004 -28.07102283 31.63060881 -24.70703125 31.70703125 C-23.41514893 31.71452393 -22.1232666 31.7220166 -20.79223633 31.72973633 C-18.32726685 31.77070435 -18.32726685 31.77070435 -15.8125 31.8125 C-10.594375 31.874375 -5.37625 31.93625 0 32 C0 21.44 0 10.88 0 0 Z " fill="#12181B" transform="translate(38,24)"/>
<path d="M0 0 C6.27 0 12.54 0 19 0 C19 4.29 19 8.58 19 13 C12.73 13 6.46 13 0 13 C0 8.71 0 4.42 0 0 Z " fill="#CBD4D8" transform="translate(13,8)"/>
<path d="M0 0 C7.59 0 15.18 0 23 0 C23 6.27 23 12.54 23 19 C15.41 19 7.82 19 0 19 C0 12.73 0 6.46 0 0 Z M2 3 C2 7.29 2 11.58 2 16 C8.27 16 14.54 16 21 16 C21 11.71 21 7.42 21 3 C14.73 3 8.46 3 2 3 Z " fill="#0D0E0F" transform="translate(11,5)"/>
<path d="M0 0 C1.9375 0.6875 1.9375 0.6875 4 2 C4.75 4.625 4.75 4.625 5 7 C4.67 7 4.34 7 4 7 C3.67 11.95 3.34 16.9 3 22 C2.67 22 2.34 22 2 22 C1.505 12.595 1.505 12.595 1 3 C-7.25 3 -15.5 3 -24 3 C-24 2.67 -24 2.34 -24 2 C-16.08 2 -8.16 2 0 2 C0 1.34 0 0.68 0 0 Z " fill="#111B2A" transform="translate(35,0)"/>
<path d="M0 0 C0.33 0.99 0.66 1.98 1 3 C0 4.5 0 4.5 -2 6 C-4.71846235 6.27345479 -7.25677199 6.13491285 -10 6 C-10 5.67 -10 5.34 -10 5 C-7.69 5 -5.38 5 -3 5 C-2.67 4.01 -2.34 3.02 -2 2 C-1.34 2 -0.68 2 0 2 C0 1.34 0 0.68 0 0 Z " fill="#131B1D" transform="translate(59,53)"/>
</svg>
