<?xml version="1.0" standalone="no"?>
<!DOCTYPE svg PUBLIC "-//W3C//DTD SVG 20010904//EN"
 "http://www.w3.org/TR/2001/REC-SVG-20010904/DTD/svg10.dtd">
<svg version="1.0" xmlns="http://www.w3.org/2000/svg"
 width="597.000000pt" height="418.000000pt" viewBox="0 0 597.000000 418.000000"
 preserveAspectRatio="xMidYMid meet">

<g transform="translate(0.000000,418.000000) scale(0.100000,-0.100000)"
fill="#000000" stroke="none">
<path d="M2415 3527 l-560 -323 -3 -651 -2 -651 287 -165 c159 -91 410 -235
559 -321 150 -86 277 -156 284 -156 7 0 264 145 571 321 l559 322 0 302 c0
166 -3 304 -6 308 -3 3 -23 -5 -43 -17 -37 -24 -162 -97 -216 -127 l-30 -16
-3 -141 c-3 -150 -1 -145 -64 -181 -85 -47 -108 -61 -173 -100 -37 -23 -69
-41 -72 -41 -3 0 -73 -40 -156 -89 -218 -127 -277 -161 -325 -188 l-43 -24
-177 102 c-97 56 -192 110 -209 120 -18 11 -49 28 -68 39 -19 11 -51 29 -70
40 -19 11 -50 29 -69 39 -18 11 -64 38 -101 60 -37 23 -70 41 -73 41 -3 0 -20
11 -39 26 l-33 25 0 299 c0 164 4 301 8 304 4 2 37 -12 72 -33 l65 -37 5 -228
5 -229 295 -170 c162 -93 311 -178 330 -189 19 -11 40 -24 46 -29 7 -6 31 3
66 23 29 18 183 107 341 198 l287 165 0 167 c0 155 -1 167 -17 161 -10 -3 -25
-11 -33 -18 -8 -7 -51 -32 -95 -57 -44 -25 -183 -104 -308 -177 l-228 -132
-197 114 -197 114 -3 43 c-2 23 -1 48 2 56 3 9 61 -19 195 -96 105 -61 195
-110 201 -110 6 0 129 68 273 151 144 84 287 165 317 182 30 17 73 42 95 56
22 13 65 38 95 54 30 17 87 49 125 72 39 23 105 61 148 85 l77 44 0 167 0 168
-57 34 c-89 53 -1072 617 -1075 616 -2 0 -255 -145 -563 -322z m605 -37 c14
-11 28 -20 31 -20 4 0 42 -21 85 -46 44 -25 86 -49 94 -54 479 -275 578 -335
570 -344 -5 -6 -37 -26 -72 -45 l-64 -34 -342 196 -342 197 -283 -162 c-155
-89 -286 -165 -290 -169 -8 -6 40 -37 173 -111 25 -14 59 -33 75 -43 l31 -18
141 82 c78 44 147 81 153 81 11 0 350 -192 378 -213 9 -7 -40 -40 -175 -118
-104 -60 -194 -109 -202 -109 -12 0 -73 33 -348 191 -18 11 -49 28 -68 39 -19
11 -51 29 -70 40 -19 11 -50 28 -67 39 -18 10 -62 35 -98 55 -36 21 -72 41
-80 46 -8 6 -32 19 -52 30 -63 34 -92 11 327 252 66 38 127 73 135 78 21 14
123 72 245 140 22 12 44 26 50 31 14 14 38 10 65 -11z"/>
<path d="M937 909 c-80 -19 -147 -73 -182 -146 -26 -54 -32 -184 -11 -255 20
-68 80 -139 138 -163 96 -38 265 -28 356 22 85 46 83 42 80 172 l-3 116 -137
3 -138 3 0 -61 0 -60 60 0 c60 0 60 0 60 -30 0 -34 -29 -53 -96 -64 -88 -15
-152 42 -161 142 -7 75 11 139 49 174 25 23 39 28 83 28 47 0 56 -3 79 -31 23
-28 31 -30 64 -25 20 3 56 9 80 12 41 6 43 8 37 33 -15 61 -72 111 -147 130
-54 13 -156 13 -211 0z"/>
<path d="M4291 909 c-72 -22 -132 -76 -164 -149 -31 -68 -29 -227 2 -293 89
-183 363 -200 451 -26 28 54 25 64 -19 77 -58 18 -66 15 -85 -26 -52 -116
-215 -90 -246 39 -18 73 -8 178 20 224 51 83 176 85 224 5 19 -33 42 -37 95
-19 38 13 39 23 3 80 -37 57 -101 90 -186 95 -33 2 -76 -1 -95 -7z"/>
<path d="M1396 898 c4 -7 45 -71 91 -141 l84 -128 -101 -149 -101 -150 99 0
99 0 46 73 c25 40 49 81 53 90 3 9 9 17 13 17 8 0 96 -135 107 -163 5 -14 22
-17 105 -17 54 0 99 2 99 5 0 6 -111 177 -120 185 -3 3 -20 28 -38 57 l-33 52
60 90 c34 50 61 93 61 96 0 3 11 23 25 43 14 20 25 40 25 44 0 5 -40 8 -89 8
l-90 0 -48 -85 c-26 -47 -52 -83 -58 -82 -5 2 -31 40 -57 85 l-49 82 -95 0
c-73 0 -94 -3 -88 -12z"/>
<path d="M2410 860 l0 -50 85 0 85 0 0 -240 0 -240 55 0 55 0 0 78 c1 42 2
149 3 237 l2 160 87 3 87 3 -3 42 c-2 23 -4 45 -5 50 -1 4 -102 7 -226 7
l-225 0 0 -50z"/>
<path d="M2947 903 c-4 -3 -7 -134 -7 -290 l0 -283 60 0 60 0 0 120 0 120 46
0 c55 0 70 -14 159 -149 l60 -90 68 -1 c37 0 67 3 67 6 0 3 -13 24 -29 47 -15
23 -36 57 -45 75 -10 18 -40 55 -68 83 -27 27 -44 49 -37 49 35 0 101 44 119
81 51 99 -2 209 -111 230 -52 10 -333 12 -342 2z m333 -113 c25 -25 26 -71 3
-99 -16 -19 -32 -23 -120 -28 l-103 -6 0 76 0 77 100 0 c87 0 103 -3 120 -20z"/>
<path d="M3651 778 c-29 -73 -79 -201 -112 -284 -32 -82 -59 -153 -59 -157 0
-4 27 -7 59 -7 l59 0 23 65 23 66 119 -3 119 -3 25 -62 25 -63 59 0 c32 0 59
3 59 8 0 4 -51 133 -112 287 l-113 280 -61 3 -62 3 -51 -133z m153 -115 c20
-53 35 -98 32 -100 -2 -2 -37 -3 -79 -1 l-75 3 36 98 c20 53 39 97 43 97 3 0
23 -43 43 -97z"/>
<path d="M4710 620 l0 -290 60 0 60 0 0 88 0 88 47 47 c34 34 49 44 55 35 4
-7 40 -68 80 -135 l72 -123 74 0 74 0 -14 23 c-19 28 -142 218 -180 276 -15
25 -28 49 -28 53 0 5 44 54 98 109 53 55 99 105 100 110 2 5 -28 9 -70 8 l-73
0 -115 -127 -115 -126 -3 127 -3 127 -59 0 -60 0 0 -290z"/>
<path d="M2163 670 c-45 -18 -58 -90 -22 -129 17 -18 30 -21 67 -19 42 3 49 7
64 36 37 74 -30 144 -109 112z"/>
</g>
</svg>
