<?xml version="1.0" encoding="UTF-8"?>
<!-- Generator: visioncortex VTracer 0.6.4 -->
<svg version="1.1" xmlns="http://www.w3.org/2000/svg" width="64" height="64">
<path d="M0 0 C9.46503918 -0.89511754 9.46503918 -0.89511754 12.80859375 1.0546875 C15.91117906 4.4610868 16.2408307 7.53633222 16.48828125 11.96484375 C17.4944829 15.96660757 20.93314743 18.43761665 24 21 C27.78159845 19.42213025 30.28557597 17.04655956 33.1875 14.1875 C34.06792969 13.33542969 34.94835938 12.48335937 35.85546875 11.60546875 C38.13054901 8.84139127 38.36340387 7.40664957 39 4 C42.14952489 1.43181265 45.88022721 0.14605732 49.875 -0.375 C52 0 52 0 54 2 C53.71588048 6.92473829 52.77056348 10.89192312 50 15 C49.09378906 15.26941406 48.18757813 15.53882813 47.25390625 15.81640625 C43.27338725 17.26430212 40.94998335 19.60042544 38.125 22.625 C37.62742188 23.140625 37.12984375 23.65625 36.6171875 24.1875 C35.4020666 25.44935632 34.19968875 26.72346286 33 28 C34.93808016 32.15560444 37.15655216 35.40790727 41 38 C43.3324188 38.48103611 45.56703801 38.62148123 47.94140625 38.765625 C50 39 50 39 52.5625 40.375 C54.91654616 44.67369299 54.29752146 49.20659873 54 54 C49.51928716 53.15256083 47.36165653 50.97965011 44 48 C43.34 48.99 42.68 49.98 42 51 C42.6496875 51.59748047 42.6496875 51.59748047 43.3125 52.20703125 C43.869375 52.73683594 44.42625 53.26664063 45 53.8125 C45.556875 54.33457031 46.11375 54.85664062 46.6875 55.39453125 C48 57 48 57 48 60 C38.53496082 60.89511754 38.53496082 60.89511754 35.19140625 58.9453125 C32.0862563 55.53609742 31.76790845 52.45967407 31.50390625 48.03125 C30.51156515 44.03111534 27.12499827 41.48989469 24 39 C23.34 38.67 22.68 38.34 22 38 C22.0707373 38.7434668 22.14147461 39.48693359 22.21435547 40.25292969 C21.94485829 43.70666799 21.02616087 44.57129509 18.5703125 46.953125 C17.85746094 47.654375 17.14460938 48.355625 16.41015625 49.078125 C15.27900391 50.15320312 15.27900391 50.15320312 14.125 51.25 C13.37863281 51.9821875 12.63226562 52.714375 11.86328125 53.46875 C5.24356066 59.90955922 5.24356066 59.90955922 0.5625 60.25 C-3 60 -3 60 -4.9375 58.9375 C-6.73584842 55.65815876 -6.60523685 53.69194477 -6 50 C-4.03603561 46.96592681 -1.55033418 44.54581231 1 42 C1.83015625 41.09894531 2.6603125 40.19789062 3.515625 39.26953125 C10.29849653 32.07034575 10.29849653 32.07034575 13.8046875 31.71875 C14.52914063 31.8115625 15.25359375 31.904375 16 32 C14.8758824 30.70756532 13.75067408 29.41607925 12.625 28.125 C11.99851562 27.40570312 11.37203125 26.68640625 10.7265625 25.9453125 C8.35754576 22.96700964 8.35754576 22.96700964 4.9765625 21.7265625 C3.81253906 21.67628906 3.81253906 21.67628906 2.625 21.625 C-0.30444507 21.32309262 -1.93180519 21.03659234 -4.5625 19.625 C-6.91654616 15.32630701 -6.29752146 10.79340127 -6 6 C-1.51928716 6.84743917 0.63834347 9.02034989 4 12 C4.66 11.01 5.32 10.02 6 9 C5.566875 8.60167969 5.13375 8.20335937 4.6875 7.79296875 C4.130625 7.26316406 3.57375 6.73335937 3 6.1875 C2.1646875 5.40439453 2.1646875 5.40439453 1.3125 4.60546875 C0 3 0 3 0 0 Z " fill="#D9E8ED" transform="translate(8,2)"/>
<path d="M0 0 C3.19580978 1.37953611 4.95446021 2.92144801 7.1875 5.5625 C10.66637445 9.20632109 13.0873878 9.55882551 17.9765625 9.80078125 C20 10 20 10 22.5625 11.375 C24.91654616 15.67369299 24.29752146 20.20659873 24 25 C19.51928716 24.15256083 17.36165653 21.97965011 14 19 C13.34 19.99 12.68 20.98 12 22 C12.433125 22.39832031 12.86625 22.79664062 13.3125 23.20703125 C13.869375 23.73683594 14.42625 24.26664063 15 24.8125 C15.556875 25.33457031 16.11375 25.85664062 16.6875 26.39453125 C18 28 18 28 18 31 C8.53496082 31.89511754 8.53496082 31.89511754 5.19140625 29.9453125 C2.08059162 26.52987804 1.81734127 23.52706345 1.578125 19.1015625 C0.37263971 14.71946058 -3.65100064 11.86839125 -7 9 C-5.27845212 5.23511958 -3.00765886 2.84936103 0 0 Z " fill="#32638B" transform="translate(38,31)"/>
<path d="M0 0 C9.46503918 -0.89511754 9.46503918 -0.89511754 12.80859375 1.0546875 C15.91940838 4.47012196 16.18265873 7.47293655 16.421875 11.8984375 C17.62736029 16.28053942 21.65100064 19.13160875 25 22 C23.27845212 25.76488042 21.00765886 28.15063897 18 31 C14.80419022 29.62046389 13.04553979 28.07855199 10.8125 25.4375 C7.33362555 21.79367891 4.9126122 21.44117449 0.0234375 21.19921875 C-2 21 -2 21 -4.5625 19.625 C-6.91654616 15.32630701 -6.29752146 10.79340127 -6 6 C-1.51928716 6.84743917 0.63834347 9.02034989 4 12 C4.66 11.01 5.32 10.02 6 9 C5.566875 8.60167969 5.13375 8.20335937 4.6875 7.79296875 C4.130625 7.26316406 3.57375 6.73335937 3 6.1875 C2.1646875 5.40439453 2.1646875 5.40439453 1.3125 4.60546875 C0 3 0 3 0 0 Z " fill="#32638B" transform="translate(8,2)"/>
<path d="M0 0 C1.73473712 1.94125344 3.4045651 3.94272868 5 6 C5.66 6.33 6.32 6.66 7 7 C6.48311461 10.9956403 5.56543726 12.92899908 2.69140625 15.734375 C2.02689453 16.39050781 1.36238281 17.04664062 0.67773438 17.72265625 C-0.02029297 18.39167969 -0.71832031 19.06070313 -1.4375 19.75 C-2.13166016 20.43449219 -2.82582031 21.11898437 -3.54101562 21.82421875 C-9.76561573 27.9102266 -9.76561573 27.9102266 -14.4375 28.25 C-18 28 -18 28 -19.9375 26.9375 C-21.73584842 23.65815876 -21.60523685 21.69194477 -21 18 C-19.03613987 14.96608787 -16.55254543 12.54350987 -14 10 C-13.15824219 9.09894531 -12.31648437 8.19789062 -11.44921875 7.26953125 C-4.5282969 0 -4.5282969 0 0 0 Z " fill="#32B8EE" transform="translate(23,34)"/>
<path d="M0 0 C1.32 0 2.64 0 4 0 C5.73473712 1.94125344 7.4045651 3.94272868 9 6 C9.66 6.33 10.32 6.66 11 7 C10.67 8.65 10.34 10.3 10 12 C6.33939179 11.41463247 4.45464836 9.916761 1.75 7.4375 C1.04359375 6.79683594 0.3371875 6.15617187 -0.390625 5.49609375 C-1.18726562 4.75552734 -1.18726562 4.75552734 -2 4 C-1.34 2.68 -0.68 1.36 0 0 Z " fill="#2FAADB" transform="translate(19,34)"/>
</svg>
