<?xml version="1.0" encoding="UTF-8"?>
<!-- Generator: visioncortex VTracer 0.6.4 -->
<svg version="1.1" xmlns="http://www.w3.org/2000/svg" width="64" height="64">
<path d="M0 0 C5.28491298 3.9476114 9.50334606 8.89285069 11.60546875 15.19921875 C12.22824446 23.2340464 12.58644737 30.53087278 7.60546875 37.19921875 C3.71775581 41.7007811 -0.70710067 45.30340856 -6.39453125 47.19921875 C-8.51780481 47.29445793 -10.64412836 47.32908237 -12.76953125 47.32421875 C-14.45175781 47.32808594 -14.45175781 47.32808594 -16.16796875 47.33203125 C-19.03717747 47.21392823 -21.60661354 46.85704203 -24.39453125 46.19921875 C-23.40453125 47.51921875 -22.41453125 48.83921875 -21.39453125 50.19921875 C-22.14453125 52.13671875 -22.14453125 52.13671875 -23.39453125 54.19921875 C-25.51953125 54.94921875 -25.51953125 54.94921875 -27.39453125 55.19921875 C-28.05453125 54.20921875 -28.71453125 53.21921875 -29.39453125 52.19921875 C-30.71453125 52.19921875 -32.03453125 52.19921875 -33.39453125 52.19921875 C-33.39453125 53.84921875 -33.39453125 55.49921875 -33.39453125 57.19921875 C-35.37453125 57.19921875 -37.35453125 57.19921875 -39.39453125 57.19921875 C-39.39453125 55.21921875 -39.39453125 53.23921875 -39.39453125 51.19921875 C-40.50828125 51.44671875 -40.50828125 51.44671875 -41.64453125 51.69921875 C-44.39453125 52.19921875 -44.39453125 52.19921875 -48.39453125 52.19921875 C-49.05453125 50.54921875 -49.71453125 48.89921875 -50.39453125 47.19921875 C-49.40453125 46.53921875 -48.41453125 45.87921875 -47.39453125 45.19921875 C-47.39453125 43.87921875 -47.39453125 42.55921875 -47.39453125 41.19921875 C-49.04453125 41.19921875 -50.69453125 41.19921875 -52.39453125 41.19921875 C-52.39453125 39.21921875 -52.39453125 37.23921875 -52.39453125 35.19921875 C-50.41453125 35.19921875 -48.43453125 35.19921875 -46.39453125 35.19921875 C-46.55953125 34.45671875 -46.72453125 33.71421875 -46.89453125 32.94921875 C-47.39453125 30.19921875 -47.39453125 30.19921875 -47.39453125 26.19921875 C-45.74453125 25.53921875 -44.09453125 24.87921875 -42.39453125 24.19921875 C-41.07453125 25.51921875 -39.75453125 26.83921875 -38.39453125 28.19921875 C-38.42933594 27.42578125 -38.46414062 26.65234375 -38.5 25.85546875 C-38.74022331 16.61259088 -38.07161988 10.74975331 -31.64453125 3.88671875 C-23.12731707 -3.93866395 -10.35036974 -6.28967031 0 0 Z M-39.01953125 35.38671875 C-40.59292965 37.1599098 -40.59292965 37.1599098 -40.76953125 39.69921875 C-40.57185777 42.2039431 -40.57185777 42.2039431 -39.20703125 44.01171875 C-36.72215859 45.63973877 -35.30741693 45.70897374 -32.39453125 45.19921875 C-30.55137454 43.29877205 -30.55137454 43.29877205 -29.39453125 41.19921875 C-30.34570259 40.02670565 -31.30570134 38.8613486 -32.26953125 37.69921875 C-32.80320312 37.04953125 -33.336875 36.39984375 -33.88671875 35.73046875 C-34.38429688 35.22515625 -34.881875 34.71984375 -35.39453125 34.19921875 C-37.46084342 34.00254655 -37.46084342 34.00254655 -39.01953125 35.38671875 Z " fill="#E9F1F3" transform="translate(52.39453125,4.80078125)"/>
<path d="M0 0 C5.28491298 3.9476114 9.50334606 8.89285069 11.60546875 15.19921875 C12.22824446 23.2340464 12.58644737 30.53087278 7.60546875 37.19921875 C3.71775581 41.7007811 -0.70710067 45.30340856 -6.39453125 47.19921875 C-8.51780481 47.29445793 -10.64412836 47.32908237 -12.76953125 47.32421875 C-14.45175781 47.32808594 -14.45175781 47.32808594 -16.16796875 47.33203125 C-19.03717747 47.21392823 -21.60661354 46.85704203 -24.39453125 46.19921875 C-23.40453125 47.51921875 -22.41453125 48.83921875 -21.39453125 50.19921875 C-22.14453125 52.13671875 -22.14453125 52.13671875 -23.39453125 54.19921875 C-25.51953125 54.94921875 -25.51953125 54.94921875 -27.39453125 55.19921875 C-28.05453125 54.20921875 -28.71453125 53.21921875 -29.39453125 52.19921875 C-30.71453125 52.19921875 -32.03453125 52.19921875 -33.39453125 52.19921875 C-33.39453125 53.84921875 -33.39453125 55.49921875 -33.39453125 57.19921875 C-35.37453125 57.19921875 -37.35453125 57.19921875 -39.39453125 57.19921875 C-39.39453125 55.21921875 -39.39453125 53.23921875 -39.39453125 51.19921875 C-40.50828125 51.44671875 -40.50828125 51.44671875 -41.64453125 51.69921875 C-44.39453125 52.19921875 -44.39453125 52.19921875 -48.39453125 52.19921875 C-49.05453125 50.54921875 -49.71453125 48.89921875 -50.39453125 47.19921875 C-49.40453125 46.53921875 -48.41453125 45.87921875 -47.39453125 45.19921875 C-47.39453125 43.87921875 -47.39453125 42.55921875 -47.39453125 41.19921875 C-49.04453125 41.19921875 -50.69453125 41.19921875 -52.39453125 41.19921875 C-52.39453125 39.21921875 -52.39453125 37.23921875 -52.39453125 35.19921875 C-50.41453125 35.19921875 -48.43453125 35.19921875 -46.39453125 35.19921875 C-46.55953125 34.45671875 -46.72453125 33.71421875 -46.89453125 32.94921875 C-47.39453125 30.19921875 -47.39453125 30.19921875 -47.39453125 26.19921875 C-45.74453125 25.53921875 -44.09453125 24.87921875 -42.39453125 24.19921875 C-41.07453125 25.51921875 -39.75453125 26.83921875 -38.39453125 28.19921875 C-38.42933594 27.42578125 -38.46414062 26.65234375 -38.5 25.85546875 C-38.74022331 16.61259088 -38.07161988 10.74975331 -31.64453125 3.88671875 C-23.12731707 -3.93866395 -10.35036974 -6.28967031 0 0 Z M-29.26953125 9.13671875 C-33.3511196 15.01900784 -34.40843623 20.0913224 -33.39453125 27.19921875 C-31.03843527 33.85729355 -27.38898108 37.64695218 -21.39453125 41.19921875 C-15.73618746 43.08533335 -9.65798186 43.11068944 -4.14453125 40.69921875 C0.63987101 37.98191118 4.5439727 33.4872675 6.24609375 28.21484375 C7.37148313 21.90287725 7.05767577 16.63387573 3.875 10.98828125 C0.82955257 6.69654303 -3.24966919 3.48543426 -8.39453125 2.19921875 C-16.74801341 1.25818523 -23.54908229 2.68245126 -29.26953125 9.13671875 Z M-39.01953125 35.38671875 C-40.59292965 37.1599098 -40.59292965 37.1599098 -40.76953125 39.69921875 C-40.57185777 42.2039431 -40.57185777 42.2039431 -39.20703125 44.01171875 C-36.72215859 45.63973877 -35.30741693 45.70897374 -32.39453125 45.19921875 C-30.55137454 43.29877205 -30.55137454 43.29877205 -29.39453125 41.19921875 C-30.34570259 40.02670565 -31.30570134 38.8613486 -32.26953125 37.69921875 C-32.80320312 37.04953125 -33.336875 36.39984375 -33.88671875 35.73046875 C-34.38429688 35.22515625 -34.881875 34.71984375 -35.39453125 34.19921875 C-37.46084342 34.00254655 -37.46084342 34.00254655 -39.01953125 35.38671875 Z " fill="#59B5D9" transform="translate(52.39453125,4.80078125)"/>
<path d="M0 0 C3 1 3 1 4 3 C4.99 3.33 5.98 3.66 7 4 C8.1875 7.0625 8.1875 7.0625 9 10 C8.34 10.391875 7.68 10.78375 7 11.1875 C4.74530409 12.84473993 4.74530409 12.84473993 4.625 15.5625 C4.78103864 18.17528109 4.78103864 18.17528109 7 20 C9.5 20.33333333 9.5 20.33333333 12 20 C12.66 19.34 13.32 18.68 14 18 C16.5 18.1875 16.5 18.1875 19 19 C20.99097846 21.98646769 21.94124926 24.59687262 23 28 C21.1875 29.5625 21.1875 29.5625 19 31 C18.01 30.67 17.02 30.34 16 30 C15.67 29.34 15.34 28.68 15 28 C13.68 28 12.36 28 11 28 C11 29.65 11 31.3 11 33 C9.02 33 7.04 33 5 33 C5 31.02 5 29.04 5 27 C3.88625 27.2475 3.88625 27.2475 2.75 27.5 C0 28 0 28 -4 28 C-4.66 26.35 -5.32 24.7 -6 23 C-5.01 22.34 -4.02 21.68 -3 21 C-3 19.68 -3 18.36 -3 17 C-4.65 17 -6.3 17 -8 17 C-8 15.02 -8 13.04 -8 11 C-6.02 11 -4.04 11 -2 11 C-2.165 10.2575 -2.33 9.515 -2.5 8.75 C-3 6 -3 6 -3 2 C-2.01 1.34 -1.02 0.68 0 0 Z " fill="#EA6452" transform="translate(8,29)"/>
<path d="M0 0 C0.66 0 1.32 0 2 0 C4.04169485 2.90548882 5 4.40142046 5 8 C4.34 8 3.68 8 3 8 C3 11.63 3 15.26 3 19 C1.35 19 -0.3 19 -2 19 C-2 15.37 -2 11.74 -2 8 C-2.66 8 -3.32 8 -4 8 C-3.40312566 4.65750371 -2.26396123 2.53563658 0 0 Z " fill="#FECE65" transform="translate(7,5)"/>
<path d="M0 0 C0.66 0 1.32 0 2 0 C2.02578125 0.60328125 2.0515625 1.2065625 2.078125 1.828125 C2.39631639 7.00445513 2.39631639 7.00445513 4.875 11.4375 C6.55117218 12.66997955 8.26890361 13.84593574 10 15 C10 15.66 10 16.32 10 17 C8.37007308 16.60304363 6.74607765 16.18167507 5.125 15.75 C4.22007813 15.51796875 3.31515625 15.2859375 2.3828125 15.046875 C0 14 0 14 -1.3203125 11.890625 C-1.54460938 11.26671875 -1.76890625 10.6428125 -2 10 C-1.67 9.67 -1.34 9.34 -1 9 C-0.76807135 7.48530552 -0.58784762 5.96245438 -0.4375 4.4375 C-0.35371094 3.61121094 -0.26992188 2.78492188 -0.18359375 1.93359375 C-0.12300781 1.29550781 -0.06242187 0.65742188 0 0 Z " fill="#F4BA50" transform="translate(38,16)"/>
<path d="M0 0 C1.17219543 0.78345715 2.33763668 1.57702836 3.5 2.375 C4.47453125 3.03628906 4.47453125 3.03628906 5.46875 3.7109375 C6.22671875 4.34902344 6.22671875 4.34902344 7 5 C7 5.66 7 6.32 7 7 C3.7 6.01 0.4 5.02 -3 4 C-2.01 2.68 -1.02 1.36 0 0 Z " fill="#F2C266" transform="translate(41,26)"/>
</svg>
