<?xml version="1.0" encoding="UTF-8"?>
<!-- Generator: visioncortex VTracer 0.6.4 -->
<svg version="1.1" xmlns="http://www.w3.org/2000/svg" width="64" height="64">
<path d="M0 0 C2.48660455 0.3878678 3.72345219 0.70962479 5.484375 2.55859375 C5.90203125 3.17863281 6.3196875 3.79867188 6.75 4.4375 C7.17796875 5.05496094 7.6059375 5.67242188 8.046875 6.30859375 C9 8 9 8 9 10 C7.68 10 6.36 10 5 10 C5.09539063 11.27617187 5.19078125 12.55234375 5.2890625 13.8671875 C5.4015951 15.53642112 5.51354407 17.20569415 5.625 18.875 C5.68945312 19.71675781 5.75390625 20.55851562 5.8203125 21.42578125 C5.871875 22.23144531 5.9234375 23.03710938 5.9765625 23.8671875 C6.02893066 24.61081543 6.08129883 25.35444336 6.13525391 26.12060547 C6 28 6 28 4 30 C4 30.99 4 31.98 4 33 C6.31 33.66 8.62 34.32 11 35 C11 35.99 11 36.98 11 38 C11.66 38 12.32 38 13 38 C13 33.05 13 28.1 13 23 C11.68 23 10.36 23 9 23 C10.45044271 18.89041233 12.51110752 15.56741255 15 12 C17.46044923 12.38904539 18.72159721 12.71427082 20.484375 14.5234375 C20.90203125 15.13445313 21.3196875 15.74546875 21.75 16.375 C22.17796875 16.98085938 22.6059375 17.58671875 23.046875 18.2109375 C24 20 24 20 24 23 C22.68 23 21.36 23 20 23 C20.06023036 25.73144666 20.14732153 28.45759197 20.25 31.1875 C20.26417969 31.95642578 20.27835938 32.72535156 20.29296875 33.51757812 C20.51543431 38.70102568 21.43137516 41.05025988 25 45 C26.38045225 49.33748657 26.33331233 53.01858036 24.875 57.3125 C22.68718357 60.44837022 21.39089616 62.16326458 18 64 C13.16830611 64.64762162 8.72006309 64.63567549 4.125 62.9375 C1.65311637 60.68372375 -0.03769703 58.26440381 -1.7890625 55.42578125 C-2.18867187 54.95527344 -2.58828125 54.48476563 -3 54 C-3.99 54 -4.98 54 -6 54 C-6.33 55.98 -6.66 57.96 -7 60 C-13.75 61.125 -13.75 61.125 -16 60 C-16.625 56.9375 -16.625 56.9375 -17 54 C-17.556875 54.144375 -18.11375 54.28875 -18.6875 54.4375 C-19.450625 54.623125 -20.21375 54.80875 -21 55 C-21.845625 55.2475 -22.69125 55.495 -23.5625 55.75 C-26 56 -26 56 -27.875 54.875 C-29 53 -29 53 -28.75 50.5625 C-28.5025 49.716875 -28.255 48.87125 -28 48 C-27.814375 47.236875 -27.62875 46.47375 -27.4375 45.6875 C-27.293125 45.130625 -27.14875 44.57375 -27 44 C-29.31 43.34 -31.62 42.68 -34 42 C-34 39.69 -34 37.38 -34 35 C-31.69 34.34 -29.38 33.68 -27 33 C-27.144375 32.443125 -27.28875 31.88625 -27.4375 31.3125 C-27.623125 30.549375 -27.80875 29.78625 -28 29 C-28.2475 28.154375 -28.495 27.30875 -28.75 26.4375 C-29 24 -29 24 -27.875 22.125 C-26 21 -26 21 -23.5625 21.25 C-22.716875 21.4975 -21.87125 21.745 -21 22 C-20.236875 22.185625 -19.47375 22.37125 -18.6875 22.5625 C-17.8521875 22.7790625 -17.8521875 22.7790625 -17 23 C-16.01 19.535 -16.01 19.535 -15 16 C-12.69 16 -10.38 16 -8 16 C-7.34 18.31 -6.68 20.62 -6 23 C-5.01 23 -4.02 23 -3 23 C-2.67 18.71 -2.34 14.42 -2 10 C-3.32 10 -4.64 10 -6 10 C-4.6302836 6.00499382 -2.74277578 3.19990508 0 0 Z " fill="#7BA0B0" transform="translate(36,0)"/>
<path d="M0 0 C2.46044923 0.38904539 3.72159721 0.71427082 5.484375 2.5234375 C6.11085938 3.43996094 6.11085938 3.43996094 6.75 4.375 C7.17796875 4.98085938 7.6059375 5.58671875 8.046875 6.2109375 C9 8 9 8 9 11 C7.68 11 6.36 11 5 11 C5.06023036 13.73144666 5.14732153 16.45759197 5.25 19.1875 C5.26417969 19.95642578 5.27835938 20.72535156 5.29296875 21.51757812 C5.51543431 26.70102568 6.43137516 29.05025988 10 33 C11.38045225 37.33748657 11.33331233 41.01858036 9.875 45.3125 C7.68718357 48.44837022 6.39089616 50.16326458 3 52 C-1.88728993 52.6550735 -6.33557505 52.58948383 -11 50.9375 C-14.3927926 47.65073217 -15.89854139 44.37007302 -16.09765625 39.71875 C-15.75522951 34.70762697 -14.76526808 31.5501099 -11 28 C-7.63468756 25.72027222 -6.42133504 26 -2 26 C-2 21.05 -2 16.1 -2 11 C-3.32 11 -4.64 11 -6 11 C-4.54955729 6.89041233 -2.48889248 3.56741255 0 0 Z " fill="#EC4827" transform="translate(51,12)"/>
<path d="M0 0 C2.31 0 4.62 0 7 0 C7.375 2.25 7.375 2.25 7 5 C4.25 7.0625 4.25 7.0625 1 9 C-0.37310707 10.29233607 -1.71034824 11.62437146 -3 13 C-3.7425 13.53625 -4.485 14.0725 -5.25 14.625 C-7.68893082 17.93497755 -7.56565743 20.57660046 -7.37109375 24.609375 C-6.40914795 30.8063311 -0.69910823 33.97410335 3.9765625 37.546875 C5.93134677 39.03170788 5.93134677 39.03170788 8 40 C8 41.32 8 42.64 8 44 C1.25 45.125 1.25 45.125 -1 44 C-1.625 40.9375 -1.625 40.9375 -2 38 C-2.556875 38.144375 -3.11375 38.28875 -3.6875 38.4375 C-4.450625 38.623125 -5.21375 38.80875 -6 39 C-6.845625 39.2475 -7.69125 39.495 -8.5625 39.75 C-11 40 -11 40 -12.875 38.875 C-14 37 -14 37 -13.75 34.5625 C-13.5025 33.716875 -13.255 32.87125 -13 32 C-12.7215625 30.8553125 -12.7215625 30.8553125 -12.4375 29.6875 C-12.293125 29.130625 -12.14875 28.57375 -12 28 C-14.31 27.34 -16.62 26.68 -19 26 C-19 23.69 -19 21.38 -19 19 C-16.69 18.34 -14.38 17.68 -12 17 C-12.144375 16.443125 -12.28875 15.88625 -12.4375 15.3125 C-12.623125 14.549375 -12.80875 13.78625 -13 13 C-13.37125 11.7315625 -13.37125 11.7315625 -13.75 10.4375 C-14 8 -14 8 -12.875 6.125 C-11 5 -11 5 -8.5625 5.25 C-7.2940625 5.62125 -7.2940625 5.62125 -6 6 C-5.236875 6.185625 -4.47375 6.37125 -3.6875 6.5625 C-2.8521875 6.7790625 -2.8521875 6.7790625 -2 7 C-1.34 4.69 -0.68 2.38 0 0 Z " fill="#698F9A" transform="translate(21,16)"/>
<path d="M0 0 C3.0625 1.9375 3.0625 1.9375 5 5 C6.03945854 9.75058323 5.669717 12.94141507 3.0625 17.0625 C-1.05858493 19.669717 -4.24941677 20.03945854 -9 19 C-12.0625 17.0625 -12.0625 17.0625 -14 14 C-15.03945854 9.24941677 -14.669717 6.05858493 -12.0625 1.9375 C-7.94141507 -0.669717 -4.75058323 -1.03945854 0 0 Z " fill="#D9F1F8" transform="translate(29,29)"/>
<path d="M0 0 C2.46044923 0.38904539 3.72159721 0.71427082 5.484375 2.5234375 C6.11085938 3.43996094 6.11085938 3.43996094 6.75 4.375 C7.17796875 4.98085938 7.6059375 5.58671875 8.046875 6.2109375 C9 8 9 8 9 11 C7.68 11 6.36 11 5 11 C5 16.61 5 22.22 5 28 C2.69 27.34 0.38 26.68 -2 26 C-2 21.05 -2 16.1 -2 11 C-3.32 11 -4.64 11 -6 11 C-4.54955729 6.89041233 -2.48889248 3.56741255 0 0 Z " fill="#06E29B" transform="translate(51,12)"/>
<path d="M0 0 C0 2.97 0 5.94 0 9 C1.65 8.01 3.3 7.02 5 6 C4.01 6 3.02 6 2 6 C2 4.02 2 2.04 2 0 C4.97454134 0.32157204 6.59335278 0.62139742 8.8125 2.6875 C10.3863876 5.75243901 10.48701495 7.59089535 10 11 C7.91786087 14.74785043 6.7052961 15.79482295 2.5625 17 C-1.37108373 17 -2.95425175 16.41868244 -6 14 C-7.59772112 10.80455776 -7.50722235 7.46830418 -7 4 C-4.69501569 0.8207113 -3.97179786 0 0 0 Z " fill="#FAF7F7" transform="translate(47,43)"/>
<path d="M0 0 C2.48660455 0.3878678 3.72345219 0.70962479 5.484375 2.55859375 C5.90203125 3.17863281 6.3196875 3.79867188 6.75 4.4375 C7.17796875 5.05496094 7.6059375 5.67242188 8.046875 6.30859375 C9 8 9 8 9 10 C7.68 10 6.36 10 5 10 C5 14.29 5 18.58 5 23 C3.35 22.67 1.7 22.34 0 22 C-0.66 22.33 -1.32 22.66 -2 23 C-2 18.71 -2 14.42 -2 10 C-3.32 10 -4.64 10 -6 10 C-4.6302836 6.00499382 -2.74277578 3.19990508 0 0 Z " fill="#05E29B" transform="translate(36,0)"/>
<path d="M0 0 C2.4375 1.5625 2.4375 1.5625 4 4 C3.9375 7.625 3.9375 7.625 3 11 C-0.46923881 13.31282587 -1.92205575 13.42478586 -6 13 C-7.875 11.9375 -7.875 11.9375 -9 10 C-9.63316583 4.09045226 -9.63316583 4.09045226 -7.875 1.0625 C-5.06487736 -0.52990283 -3.17235276 -0.45319325 0 0 Z " fill="#6F939E" transform="translate(27,32)"/>
<path d="M0 0 C2.75569447 2.18159145 4.43588747 3.87177494 6 7 C6.59873168 12.26883876 5.25400021 14.8846468 2 19 C-1.45739557 20.72869779 -5.21975568 20.48966895 -9 20 C-11.87029869 18.20606332 -13.49131638 17.01736724 -15 14 C-15.5811138 6.91041162 -15.5811138 6.91041162 -13.125 3.0625 C-9.24699241 -0.70144855 -5.21240222 -0.82822281 0 0 Z M-11.1875 3.5 C-13.40269423 6.55544032 -13.58945285 8.39879403 -13.3828125 12.09765625 C-13.08307629 14.20956051 -13.08307629 14.20956051 -11.375 16.4375 C-8.4340868 18.37231132 -6.52349544 18.92809193 -3 19 C0.52906067 17.39588152 1.82772908 16.25840638 4 13 C4.50078161 9.16067432 4.28143947 7.46236484 2.25 4.125 C0.03113367 1.54225098 0.03113367 1.54225098 -4 2 C-4 3.98 -4 5.96 -4 8 C-3.01 8 -2.02 8 -1 8 C-3.475 9.485 -3.475 9.485 -6 11 C-6 8.03 -6 5.06 -6 2 C-9.02970006 1.71723582 -9.02970006 1.71723582 -11.1875 3.5 Z " fill="#DA442A" transform="translate(53,41)"/>
<path d="M0 0 C3.76110572 0.02155361 5.955079 0.3286021 8.875 2.75 C12.43441441 6.58321552 12.70465852 8.96542972 12.671875 14.046875 C12.06705722 17.96504236 10.14373243 19.67858816 7.3125 22.375 C3.82806578 24.11721711 0.11362955 23.96175154 -3.6875 23.375 C-6.76219523 21.67248281 -9.09363254 19.56273492 -10.6875 16.375 C-11.10698626 12.9891466 -11.18164522 9.75431569 -10.6875 6.375 C-8.25 3.3125 -8.25 3.3125 -5.6875 1.375 C-4.05531064 -0.25718936 -2.24806873 0.08736889 0 0 Z M-6.75 4.3125 C-9.357217 8.43358493 -9.72695854 11.62441677 -8.6875 16.375 C-6.9375 19.625 -6.9375 19.625 -3.6875 21.375 C1.06308323 22.41445854 4.25391507 22.044717 8.375 19.4375 C10.982217 15.31641507 11.35195854 12.12558323 10.3125 7.375 C8.5625 4.125 8.5625 4.125 5.3125 2.375 C0.56191677 1.33554146 -2.62891507 1.705283 -6.75 4.3125 Z " fill="#92BCC8" transform="translate(23.6875,26.625)"/>
<path d="M0 0 C8.968 -0.456 8.968 -0.456 13 3 C16.0719637 7.30074918 16.43785814 10.74242535 15.6328125 15.8125 C14.52232038 19.65123818 13.04150658 21.35521167 10 24 C6.375 25 6.375 25 3 25 C2.01 24.34 1.02 23.68 0 23 C0.61488281 22.84144531 1.22976562 22.68289062 1.86328125 22.51953125 C7.03129201 21.06695631 7.03129201 21.06695631 11.0625 17.6875 C12.52779387 13.4869909 12.52779387 10.5130091 11.0625 6.3125 C8.01320067 2.89358863 4.34700752 2.12092647 0 1 C0 0.67 0 0.34 0 0 Z " fill="#FB5425" transform="translate(46,39)"/>
<path d="M0 0 C1.22589844 0.01353516 1.22589844 0.01353516 2.4765625 0.02734375 C3.41628906 0.04474609 3.41628906 0.04474609 4.375 0.0625 C4.045 0.7225 3.715 1.3825 3.375 2.0625 C2.385 2.0625 1.395 2.0625 0.375 2.0625 C0.375 4.0425 0.375 6.0225 0.375 8.0625 C1.695 7.4025 3.015 6.7425 4.375 6.0625 C3.625 8 3.625 8 2.375 10.0625 C1.055 10.3925 -0.265 10.7225 -1.625 11.0625 C-1.625 8.0925 -1.625 5.1225 -1.625 2.0625 C-4.14186936 2.46561361 -4.14186936 2.46561361 -6.625 4.0625 C-7.70741903 6.72775288 -8.11772107 9.2032915 -8.625 12.0625 C-8.955 12.0625 -9.285 12.0625 -9.625 12.0625 C-10.375 9.375 -10.375 9.375 -10.625 6.0625 C-7.53611689 1.26940551 -5.57219238 -0.07960275 0 0 Z " fill="#DB5038" transform="translate(48.625,40.9375)"/>
<path d="M0 0 C0.66 0.33 1.32 0.66 2 1 C1.01 1.33 0.02 1.66 -1 2 C-0.67 2.99 -0.34 3.98 0 5 C-0.33 5.33 -0.66 5.66 -1 6 C-1.41199125 11.2528884 -0.65673037 14.46141895 2 19 C-1.65316671 17.75023244 -2.78065836 17.32901247 -5 14 C-5.54520806 10.93535679 -5.55270563 8.06402832 -5 5 C-2.5 1.9375 -2.5 1.9375 0 0 Z " fill="#C5EAF8" transform="translate(20,29)"/>
<path d="M0 0 C0.598125 0.226875 1.19625 0.45375 1.8125 0.6875 C0.8225 2.1725 0.8225 2.1725 -0.1875 3.6875 C-0.68206096 7.95639849 -0.68206096 7.95639849 1.3125 11.5625 C1.8075 11.93375 2.3025 12.305 2.8125 12.6875 C0.10936424 12.90667317 -1.62708382 13.01601983 -4 11.625 C-5.85786623 8.59374457 -5.55883265 6.15327141 -5.1875 2.6875 C-3.58118253 0.11739205 -3.03484548 -0.43354935 0 0 Z " fill="#5A7F89" transform="translate(23.1875,32.3125)"/>
<path d="M0 0 C0.99 0 1.98 0 3 0 C2.49967382 4.37785406 1.11840922 6.88159078 -2 10 C-3.32 10 -4.64 10 -6 10 C-4.63356852 6.01457486 -2.89890986 3.07460137 0 0 Z " fill="#0BD491" transform="translate(36,0)"/>
<path d="M0 0 C0.99 0 1.98 0 3 0 C2.49701212 4.40114397 0.91227269 6.71195019 -2 10 C-3.32 9.67 -4.64 9.34 -6 9 C-5.07544441 7.491987 -4.1349253 5.99375083 -3.1875 4.5 C-2.66542969 3.6646875 -2.14335938 2.829375 -1.60546875 1.96875 C-1.07566406 1.3190625 -0.54585937 0.669375 0 0 Z " fill="#0BD590" transform="translate(51,12)"/>
<path d="M0 0 C0.66 0.33 1.32 0.66 2 1 C1.79375 2.010625 1.5875 3.02125 1.375 4.0625 C0.9528506 8.49506869 1.5640515 10.86108962 3 15 C-0.875 13.25 -0.875 13.25 -2 11 C-2.35555556 3.53333333 -2.35555556 3.53333333 0 0 Z " fill="#EDEAEA" transform="translate(42,44)"/>
<path d="M0 0 C1.32 0.33 2.64 0.66 4 1 C3.67 2.98 3.34 4.96 3 7 C4.32 6.34 5.64 5.68 7 5 C6.25 6.9375 6.25 6.9375 5 9 C3.68 9.33 2.36 9.66 1 10 C0.67 6.7 0.34 3.4 0 0 Z " fill="#84989E" transform="translate(46,42)"/>
<path d="M0 0 C2.475 0.495 2.475 0.495 5 1 C4.67 2.32 4.34 3.64 4 5 C2.68 4.67 1.36 4.34 0 4 C0 2.68 0 1.36 0 0 Z " fill="#F9FAFB" transform="translate(22,36)"/>
</svg>
