<?xml version="1.0" encoding="UTF-8"?>
<!-- Generator: visioncortex VTracer 0.6.4 -->
<svg version="1.1" xmlns="http://www.w3.org/2000/svg" width="64" height="64">
<path d="M0 0 C5.95614005 3.55999175 10.26302073 8.47271354 12.4765625 15.09375 C13.18984285 22.01676521 12.23048166 28.40693322 10.4765625 35.09375 C11.46785156 35.27421875 12.45914063 35.4546875 13.48046875 35.640625 C18.60852199 37.11353523 21.76626849 40.61362109 25.4140625 44.34375 C26.09791016 44.99988281 26.78175781 45.65601563 27.48632812 46.33203125 C32.31939591 51.18924023 32.31939591 51.18924023 33.05078125 55.3984375 C32.22330744 59.28249823 30.63673322 60.75797164 27.4765625 63.09375 C24.81640625 63.703125 24.81640625 63.703125 21.4765625 63.09375 C18.37619608 60.86964099 15.80430973 58.21230081 13.1640625 55.46875 C12.43638672 54.75589844 11.70871094 54.04304688 10.95898438 53.30859375 C4.52131947 46.76893416 4.52131947 46.76893416 4.4765625 41.09375 C2.589375 41.58875 2.589375 41.58875 0.6640625 42.09375 C-7.05776915 43.76924177 -14.67986893 44.50631215 -21.73828125 40.43359375 C-25.97972874 37.25018787 -29.58644944 33.05948302 -31.5234375 28.09375 C-32.2570042 21.16751558 -32.6162899 13.91517067 -28.93359375 7.77734375 C-21.76201526 -0.78484553 -10.68527889 -3.83743762 0 0 Z " fill="#81B5FB" transform="translate(31.5234375,0.90625)"/>
<path d="M0 0 C0.73863281 0.21914062 1.47726563 0.43828125 2.23828125 0.6640625 C4.80198122 1.85176531 6.22659242 2.77154539 8 5 C9.23515609 10.84863099 9.48889664 17.00798158 6.7734375 22.46484375 C4.24789582 25.52787251 1.65997175 27.44193974 -2 29 C-6.88445684 28.87146166 -9.60446532 26.32007836 -13 23 C-15.8280583 17.31452639 -16.41395658 11.17350442 -15 5 C-10.73907943 0.4156699 -6.11028492 -1.84091918 0 0 Z " fill="#5684B8" transform="translate(25,8)"/>
<path d="M0 0 C3.95478251 2.91900614 7.41112181 6.50974362 9.625 10.9375 C10.39912043 17.76498838 9.70372762 23.30735452 5.625 28.9375 C1.94034304 32.89801363 -1.40929608 34.63897205 -6.7421875 35.17578125 C-12.52868137 35.34703263 -15.86471921 34.92332953 -20.375 30.9375 C-25.87647442 25.07723377 -26.84205933 21.26610511 -26.7890625 13.28125 C-26.17223298 8.30006065 -24.10007632 5.21815289 -20.375 1.9375 C-14.24799582 -2.488697 -7.04607408 -2.21820851 0 0 Z M-18.2421875 5.76171875 C-21.0835426 8.66031726 -21.12330114 10.42507127 -21.1875 14.4375 C-20.67278182 20.72135116 -19.58536172 24.78530569 -15 29.25 C-12.20314519 31.04797809 -10.70210927 31.9375 -7.375 31.9375 C-3.02784118 29.6308443 -0.08906632 27.02276475 2.625 22.9375 C3.70957639 17.73724162 3.77129638 13.08736355 2.625 7.9375 C-0.27171465 4.80248159 -3.32702814 3.21882653 -7.375 1.9375 C-11.72948444 1.9375 -14.56536646 3.51596363 -18.2421875 5.76171875 Z " fill="#DCF0FB" transform="translate(30.375,5.0625)"/>
<path d="M0 0 C0.73863281 0.21914062 1.47726563 0.43828125 2.23828125 0.6640625 C4.80198122 1.85176531 6.22659242 2.77154539 8 5 C9.23515609 10.84863099 9.48889664 17.00798158 6.7734375 22.46484375 C4.24789582 25.52787251 1.65997175 27.44193974 -2 29 C-6.88445684 28.87146166 -9.60446532 26.32007836 -13 23 C-15.8280583 17.31452639 -16.41395658 11.17350442 -15 5 C-10.73907943 0.4156699 -6.11028492 -1.84091918 0 0 Z M-8.6875 5 C-10.3271875 5.99 -10.3271875 5.99 -12 7 C-12.58526558 15.05234591 -12.58526558 15.05234591 -9 22 C-7.2322188 23.95158486 -7.2322188 23.95158486 -5 25 C-1.63359374 25 -0.02010181 24.0129545 2.8125 22.1875 C6.1227052 17.36405814 5.40763053 12.67965208 5 7 C3.906875 6.34 2.81375 5.68 1.6875 5 C1.07261719 4.62875 0.45773438 4.2575 -0.17578125 3.875 C-3.61196675 2.22680824 -5.64826489 3.16499012 -8.6875 5 Z " fill="#396491" transform="translate(25,8)"/>
<path d="M0 0 C0.99 1.32 1.98 2.64 3 4 C0.03 6.475 0.03 6.475 -3 9 C-3.66 7.68 -4.32 6.36 -5 5 C-3.35 3.35 -1.7 1.7 0 0 Z " fill="#61A2F9" transform="translate(40,34)"/>
<path d="M0 0 C0.66 0.66 1.32 1.32 2 2 C-1.3 5.3 -4.6 8.6 -8 12 C-8.66 11.34 -9.32 10.68 -10 10 C-6.7 6.7 -3.4 3.4 0 0 Z " fill="#64A3F9" transform="translate(61,51)"/>
<path d="M0 0 C-1.39750048 3.15835107 -3.05198234 5.32272825 -5.5 7.75 C-6.41265625 8.67039062 -6.41265625 8.67039062 -7.34375 9.609375 C-9 11 -9 11 -11 11 C-9.60249952 7.84164893 -7.94801766 5.67727175 -5.5 3.25 C-4.8915625 2.63640625 -4.283125 2.0228125 -3.65625 1.390625 C-2 0 -2 0 0 0 Z " fill="#65A4F9" transform="translate(59,48)"/>
<path d="M0 0 C-1.39750048 3.15835107 -3.05198234 5.32272825 -5.5 7.75 C-6.41265625 8.67039062 -6.41265625 8.67039062 -7.34375 9.609375 C-9 11 -9 11 -11 11 C-9.60249952 7.84164893 -7.94801766 5.67727175 -5.5 3.25 C-4.8915625 2.63640625 -4.283125 2.0228125 -3.65625 1.390625 C-2 0 -2 0 0 0 Z " fill="#65A4F9" transform="translate(53,42)"/>
<path d="M0 0 C-1.39750048 3.15835107 -3.05198234 5.32272825 -5.5 7.75 C-6.41265625 8.67039062 -6.41265625 8.67039062 -7.34375 9.609375 C-9 11 -9 11 -11 11 C-9.60249952 7.84164893 -7.94801766 5.67727175 -5.5 3.25 C-4.8915625 2.63640625 -4.283125 2.0228125 -3.65625 1.390625 C-2 0 -2 0 0 0 Z " fill="#64A4F9" transform="translate(50,39)"/>
<path d="M0 0 C0.66 0.33 1.32 0.66 2 1 C0.8803014 2.00593243 -0.2459412 3.0045849 -1.375 4 C-2.00148438 4.556875 -2.62796875 5.11375 -3.2734375 5.6875 C-5 7 -5 7 -7 7 C-7.33 5.35 -7.66 3.7 -8 2 C-7.34 2 -6.68 2 -6 2 C-6 2.66 -6 3.32 -6 4 C-4.02 2.68 -2.04 1.36 0 0 Z " fill="#DEE7F1" transform="translate(25,19)"/>
</svg>
